<svg xmlns="http://www.w3.org/2000/svg" viewBox="0 0 900 500">
<defs><linearGradient id="bg" x1="0" y1="0" x2="1" y2="1"><stop stop-color="#1b2633"/><stop offset="1" stop-color="#10151c"/></linearGradient><filter id="glow"><feGaussianBlur stdDeviation="5" result="b"/><feMerge><feMergeNode in="b"/><feMergeNode in="SourceGraphic"/></feMerge></filter></defs>
<rect width="900" height="500" rx="28" fill="url(#bg)"/><rect x="18" y="18" width="864" height="464" rx="22" fill="none" stroke="#293544" stroke-width="2"/>
<circle cx="450" cy="230" r="120" fill="#121821" stroke="#3a4655" stroke-width="2"/>
<circle cx="798" cy="70" r="26" fill="#4da6ff" opacity="0.18"/><text x="798" y="80" text-anchor="middle" fill="#4da6ff" font-family="Arial, sans-serif" font-size="26" font-weight="900">♂</text>

<circle cx="450" cy="120" r="30" fill="#f5f7fa"/>
<path d="M420 100 a30 30 0 0 1 60 0" fill="#2a3543"/>
<path d="M450 152 L450 260 M450 172 L370 220 M450 172 L530 220 M450 260 L390 360 M450 260 L510 360" fill="none" stroke="#f5f7fa" stroke-width="22" stroke-linecap="round"/>
<path d="M330 235h70M500 235h70" stroke="#4da6ff" stroke-width="14" stroke-linecap="round" filter="url(#glow)"/>
<path d="M312 215v40M608 215v40" stroke="#4da6ff" stroke-width="10" stroke-linecap="round"/>

<text x="450" y="420" text-anchor="middle" fill="#4da6ff" font-family="Arial, sans-serif" font-size="23" font-weight="700" letter-spacing="2">SHOULDER</text>
<text x="450" y="458" text-anchor="middle" fill="#f5f7fa" font-family="Arial, sans-serif" font-size="20">كتف</text>
</svg>